<svg width="383" height="140" viewBox="0 0 383 140" fill="none" xmlns="http://www.w3.org/2000/svg">
<path opacity="0.68" d="M20 80H2C0.89543 80 0 81.0745 0 82.4V137.6C0 138.925 0.89543 140 2 140H20C21.1046 140 22 138.925 22 137.6V82.4C22 81.0745 21.1046 80 20 80Z" fill="url(#paint0_linear_239_197)"/>
<path opacity="0.8" d="M84 20H66C64.8954 20 64 20.6964 64 21.5556V88.4444C64 89.3036 64.8954 90 66 90H84C85.1046 90 86 89.3036 86 88.4444V21.5556C86 20.6964 85.1046 20 84 20Z" fill="url(#paint1_linear_239_197)"/>
<path d="M52 0H34C32.8954 0 32 0.89543 32 2V138C32 139.105 32.8954 140 34 140H52C53.1046 140 54 139.105 54 138V2C54 0.89543 53.1046 0 52 0Z" fill="url(#paint2_linear_239_197)"/>
<path d="M135.776 83.896C132.32 83.896 129.269 83.2773 126.624 82.04C123.979 80.8027 121.909 79.032 120.416 76.728C118.923 74.424 118.176 71.6507 118.176 68.408V66.616H126.496V68.408C126.496 71.096 127.328 73.1227 128.992 74.488C130.656 75.8107 132.917 76.472 135.776 76.472C138.677 76.472 140.832 75.896 142.24 74.744C143.691 73.592 144.416 72.12 144.416 70.328C144.416 69.0907 144.053 68.088 143.328 67.32C142.645 66.552 141.621 65.9333 140.256 65.464C138.933 64.952 137.312 64.4827 135.392 64.056L133.92 63.736C130.848 63.0533 128.203 62.2 125.984 61.176C123.808 60.1093 122.123 58.7227 120.928 57.016C119.776 55.3093 119.2 53.0907 119.2 50.36C119.2 47.6293 119.84 45.304 121.12 43.384C122.443 41.4213 124.277 39.928 126.624 38.904C129.013 37.8373 131.808 37.304 135.008 37.304C138.208 37.304 141.045 37.8587 143.52 38.968C146.037 40.0347 148 41.656 149.408 43.832C150.859 45.9653 151.584 48.6533 151.584 51.896V53.816H143.264V51.896C143.264 50.1893 142.923 48.824 142.24 47.8C141.6 46.7333 140.661 45.9653 139.424 45.496C138.187 44.984 136.715 44.728 135.008 44.728C132.448 44.728 130.549 45.2187 129.312 46.2C128.117 47.1387 127.52 48.44 127.52 50.104C127.52 51.2133 127.797 52.152 128.352 52.92C128.949 53.688 129.824 54.328 130.976 54.84C132.128 55.352 133.6 55.8 135.392 56.184L136.864 56.504C140.064 57.1867 142.837 58.0613 145.184 59.128C147.573 60.1947 149.429 61.6027 150.752 63.352C152.075 65.1013 152.736 67.3413 152.736 70.072C152.736 72.8027 152.032 75.2133 150.624 77.304C149.259 79.352 147.296 80.9733 144.736 82.168C142.219 83.32 139.232 83.896 135.776 83.896ZM174.205 83.896C171.133 83.896 168.338 83.256 165.821 81.976C163.346 80.696 161.383 78.84 159.933 76.408C158.482 73.976 157.757 71.032 157.757 67.576V66.68C157.757 63.224 158.482 60.28 159.933 57.848C161.383 55.416 163.346 53.56 165.821 52.28C168.338 51 171.133 50.36 174.205 50.36C177.234 50.36 179.837 50.8933 182.013 51.96C184.189 53.0267 185.938 54.4987 187.261 56.376C188.626 58.2107 189.522 60.3013 189.949 62.648L182.141 64.312C181.97 63.032 181.586 61.88 180.989 60.856C180.391 59.832 179.538 59.0213 178.429 58.424C177.362 57.8267 176.018 57.528 174.397 57.528C172.775 57.528 171.303 57.8907 169.981 58.616C168.701 59.2987 167.677 60.344 166.909 61.752C166.183 63.1173 165.821 64.8027 165.821 66.808V67.448C165.821 69.4533 166.183 71.16 166.909 72.568C167.677 73.9333 168.701 74.9787 169.981 75.704C171.303 76.3867 172.775 76.728 174.397 76.728C176.829 76.728 178.663 76.1093 179.901 74.872C181.181 73.592 181.991 71.928 182.333 69.88L190.141 71.736C189.586 73.9973 188.626 76.0667 187.261 77.944C185.938 79.7787 184.189 81.2293 182.013 82.296C179.837 83.3627 177.234 83.896 174.205 83.896ZM196.793 83V51.256H204.857V83H196.793ZM200.825 47.544C199.374 47.544 198.137 47.0747 197.113 46.136C196.131 45.1973 195.641 43.96 195.641 42.424C195.641 40.888 196.131 39.6507 197.113 38.712C198.137 37.7733 199.374 37.304 200.825 37.304C202.318 37.304 203.555 37.7733 204.537 38.712C205.518 39.6507 206.009 40.888 206.009 42.424C206.009 43.96 205.518 45.1973 204.537 46.136C203.555 47.0747 202.318 47.544 200.825 47.544ZM228.897 83.896C225.739 83.896 222.902 83.256 220.385 81.976C217.867 80.696 215.883 78.84 214.433 76.408C212.982 73.976 212.257 71.0533 212.257 67.64V66.616C212.257 63.2027 212.982 60.28 214.433 57.848C215.883 55.416 217.867 53.56 220.385 52.28C222.902 51 225.739 50.36 228.897 50.36C232.054 50.36 234.891 51 237.409 52.28C239.926 53.56 241.91 55.416 243.361 57.848C244.811 60.28 245.537 63.2027 245.537 66.616V67.64C245.537 71.0533 244.811 73.976 243.361 76.408C241.91 78.84 239.926 80.696 237.409 81.976C234.891 83.256 232.054 83.896 228.897 83.896ZM228.897 76.728C231.371 76.728 233.419 75.9387 235.041 74.36C236.662 72.7387 237.473 70.4347 237.473 67.448V66.808C237.473 63.8213 236.662 61.5387 235.041 59.96C233.462 58.3387 231.414 57.528 228.897 57.528C226.422 57.528 224.374 58.3387 222.753 59.96C221.131 61.5387 220.321 63.8213 220.321 66.808V67.448C220.321 70.4347 221.131 72.7387 222.753 74.36C224.374 75.9387 226.422 76.728 228.897 76.728ZM258.699 83L248.587 51.256H257.163L264.523 77.112H265.675L273.035 51.256H281.611L271.499 83H258.699ZM296.211 83.896C293.95 83.896 291.923 83.512 290.131 82.744C288.339 81.9333 286.91 80.7813 285.843 79.288C284.819 77.752 284.307 75.896 284.307 73.72C284.307 71.544 284.819 69.7307 285.843 68.28C286.91 66.7867 288.36 65.6773 290.195 64.952C292.072 64.184 294.206 63.8 296.595 63.8H305.299V62.008C305.299 60.5147 304.83 59.2987 303.891 58.36C302.952 57.3787 301.459 56.888 299.411 56.888C297.406 56.888 295.912 57.3573 294.931 58.296C293.95 59.192 293.31 60.3653 293.011 61.816L285.587 59.32C286.099 57.6987 286.91 56.2267 288.019 54.904C289.171 53.5387 290.686 52.4507 292.563 51.64C294.483 50.7867 296.808 50.36 299.539 50.36C303.72 50.36 307.027 51.4053 309.459 53.496C311.891 55.5867 313.107 58.616 313.107 62.584V74.424C313.107 75.704 313.704 76.344 314.899 76.344H317.459V83H312.083C310.504 83 309.203 82.616 308.179 81.848C307.155 81.08 306.643 80.056 306.643 78.776V78.712H305.427C305.256 79.224 304.872 79.9067 304.275 80.76C303.678 81.5707 302.739 82.296 301.459 82.936C300.179 83.576 298.43 83.896 296.211 83.896ZM297.619 77.368C299.88 77.368 301.715 76.7493 303.123 75.512C304.574 74.232 305.299 72.5467 305.299 70.456V69.816H297.171C295.678 69.816 294.504 70.136 293.651 70.776C292.798 71.416 292.371 72.312 292.371 73.464C292.371 74.616 292.819 75.5547 293.715 76.28C294.611 77.0053 295.912 77.368 297.619 77.368Z" fill="#1C1C1C"/>
<path d="M117.606 113V97.6H123.722C124.661 97.6 125.497 97.7907 126.23 98.172C126.978 98.5387 127.557 99.0667 127.968 99.756C128.393 100.431 128.606 101.245 128.606 102.198V102.484C128.606 103.437 128.386 104.259 127.946 104.948C127.521 105.637 126.941 106.165 126.208 106.532C125.475 106.899 124.646 107.082 123.722 107.082H119.982V113H117.606ZM119.982 104.926H123.48C124.316 104.926 124.983 104.706 125.482 104.266C125.981 103.826 126.23 103.225 126.23 102.462V102.242C126.23 101.465 125.981 100.856 125.482 100.416C124.983 99.976 124.316 99.756 123.48 99.756H119.982V104.926ZM135.599 113.308C134.499 113.308 133.538 113.081 132.717 112.626C131.896 112.157 131.25 111.504 130.781 110.668C130.326 109.817 130.099 108.835 130.099 107.72V107.456C130.099 106.327 130.326 105.344 130.781 104.508C131.236 103.657 131.866 103.005 132.673 102.55C133.494 102.081 134.44 101.846 135.511 101.846C136.552 101.846 137.462 102.081 138.239 102.55C139.031 103.005 139.647 103.643 140.087 104.464C140.527 105.285 140.747 106.246 140.747 107.346V108.204H132.409C132.438 109.157 132.754 109.92 133.355 110.492C133.971 111.049 134.734 111.328 135.643 111.328C136.494 111.328 137.132 111.137 137.557 110.756C137.997 110.375 138.334 109.935 138.569 109.436L140.439 110.404C140.234 110.815 139.933 111.247 139.537 111.702C139.156 112.157 138.65 112.538 138.019 112.846C137.388 113.154 136.582 113.308 135.599 113.308ZM132.431 106.466H138.437C138.378 105.645 138.085 105.007 137.557 104.552C137.029 104.083 136.34 103.848 135.489 103.848C134.638 103.848 133.942 104.083 133.399 104.552C132.871 105.007 132.548 105.645 132.431 106.466ZM143.475 113V102.154H145.697V103.43H146.049C146.225 102.975 146.503 102.645 146.885 102.44C147.281 102.22 147.765 102.11 148.337 102.11H149.635V104.156H148.249C147.515 104.156 146.914 104.361 146.445 104.772C145.975 105.168 145.741 105.784 145.741 106.62V113H143.475ZM153.941 113V104.068H150.905V102.154H153.941V99.778C153.941 99.118 154.139 98.59 154.535 98.194C154.931 97.798 155.459 97.6 156.119 97.6H158.913V99.514H156.845C156.419 99.514 156.207 99.734 156.207 100.174V102.154H159.331V104.068H156.207V113H153.941ZM166.281 113.308C165.196 113.308 164.228 113.088 163.377 112.648C162.541 112.193 161.881 111.548 161.397 110.712C160.913 109.876 160.671 108.886 160.671 107.742V107.412C160.671 106.268 160.913 105.285 161.397 104.464C161.881 103.628 162.541 102.983 163.377 102.528C164.228 102.073 165.196 101.846 166.281 101.846C167.367 101.846 168.335 102.073 169.185 102.528C170.036 102.983 170.703 103.628 171.187 104.464C171.671 105.285 171.913 106.268 171.913 107.412V107.742C171.913 108.886 171.671 109.876 171.187 110.712C170.703 111.548 170.036 112.193 169.185 112.648C168.335 113.088 167.367 113.308 166.281 113.308ZM166.281 111.284C167.279 111.284 168.085 110.969 168.701 110.338C169.332 109.693 169.647 108.805 169.647 107.676V107.478C169.647 106.349 169.339 105.469 168.723 104.838C168.107 104.193 167.293 103.87 166.281 103.87C165.299 103.87 164.492 104.193 163.861 104.838C163.245 105.469 162.937 106.349 162.937 107.478V107.676C162.937 108.805 163.245 109.693 163.861 110.338C164.492 110.969 165.299 111.284 166.281 111.284ZM174.735 113V102.154H176.957V103.43H177.309C177.485 102.975 177.763 102.645 178.145 102.44C178.541 102.22 179.025 102.11 179.597 102.11H180.895V104.156H179.509C178.775 104.156 178.174 104.361 177.705 104.772C177.235 105.168 177.001 105.784 177.001 106.62V113H174.735ZM183.242 113V102.154H185.464V103.43H185.816C186.022 103.049 186.352 102.711 186.806 102.418C187.261 102.125 187.877 101.978 188.654 101.978C189.461 101.978 190.106 102.147 190.59 102.484C191.089 102.807 191.463 103.225 191.712 103.738H192.064C192.314 103.239 192.673 102.821 193.142 102.484C193.626 102.147 194.308 101.978 195.188 101.978C195.892 101.978 196.516 102.125 197.058 102.418C197.601 102.697 198.034 103.122 198.356 103.694C198.679 104.251 198.84 104.948 198.84 105.784V113H196.574V105.96C196.574 105.3 196.391 104.794 196.024 104.442C195.672 104.075 195.166 103.892 194.506 103.892C193.802 103.892 193.238 104.119 192.812 104.574C192.387 105.029 192.174 105.681 192.174 106.532V113H189.908V105.96C189.908 105.3 189.725 104.794 189.358 104.442C189.006 104.075 188.5 103.892 187.84 103.892C187.136 103.892 186.572 104.119 186.146 104.574C185.721 105.029 185.508 105.681 185.508 106.532V113H183.242ZM205.472 113.308C204.694 113.308 203.998 113.176 203.382 112.912C202.78 112.648 202.296 112.259 201.93 111.746C201.578 111.233 201.402 110.609 201.402 109.876C201.402 109.128 201.578 108.512 201.93 108.028C202.296 107.529 202.788 107.155 203.404 106.906C204.034 106.657 204.746 106.532 205.538 106.532H208.838V105.828C208.838 105.197 208.647 104.691 208.266 104.31C207.884 103.929 207.298 103.738 206.506 103.738C205.728 103.738 205.134 103.921 204.724 104.288C204.313 104.655 204.042 105.131 203.91 105.718L201.798 105.036C201.974 104.449 202.252 103.921 202.634 103.452C203.03 102.968 203.55 102.579 204.196 102.286C204.841 101.993 205.618 101.846 206.528 101.846C207.936 101.846 209.043 102.205 209.85 102.924C210.656 103.643 211.06 104.662 211.06 105.982V110.448C211.06 110.888 211.265 111.108 211.676 111.108H212.6V113H210.906C210.392 113 209.974 112.868 209.652 112.604C209.329 112.34 209.168 111.981 209.168 111.526V111.46H208.838C208.72 111.68 208.544 111.937 208.31 112.23C208.075 112.523 207.73 112.78 207.276 113C206.821 113.205 206.22 113.308 205.472 113.308ZM205.802 111.438C206.711 111.438 207.444 111.181 208.002 110.668C208.559 110.14 208.838 109.421 208.838 108.512V108.292H205.67C205.068 108.292 204.584 108.424 204.218 108.688C203.851 108.937 203.668 109.311 203.668 109.81C203.668 110.309 203.858 110.705 204.24 110.998C204.621 111.291 205.142 111.438 205.802 111.438ZM214.803 113V102.154H217.025V103.782H217.377C217.582 103.342 217.949 102.931 218.477 102.55C219.005 102.169 219.79 101.978 220.831 101.978C221.652 101.978 222.378 102.161 223.009 102.528C223.654 102.895 224.16 103.415 224.527 104.09C224.894 104.75 225.077 105.549 225.077 106.488V113H222.811V106.664C222.811 105.725 222.576 105.036 222.107 104.596C221.638 104.141 220.992 103.914 220.171 103.914C219.232 103.914 218.477 104.222 217.905 104.838C217.348 105.454 217.069 106.349 217.069 107.522V113H214.803ZM233.376 113.308C232.335 113.308 231.389 113.088 230.538 112.648C229.702 112.208 229.035 111.57 228.536 110.734C228.052 109.898 227.81 108.893 227.81 107.72V107.434C227.81 106.261 228.052 105.263 228.536 104.442C229.035 103.606 229.702 102.968 230.538 102.528C231.389 102.073 232.335 101.846 233.376 101.846C234.417 101.846 235.305 102.037 236.038 102.418C236.771 102.799 237.358 103.305 237.798 103.936C238.253 104.567 238.546 105.263 238.678 106.026L236.478 106.488C236.405 106.004 236.251 105.564 236.016 105.168C235.781 104.772 235.451 104.457 235.026 104.222C234.601 103.987 234.065 103.87 233.42 103.87C232.789 103.87 232.217 104.017 231.704 104.31C231.205 104.589 230.809 104.999 230.516 105.542C230.223 106.07 230.076 106.715 230.076 107.478V107.676C230.076 108.439 230.223 109.091 230.516 109.634C230.809 110.177 231.205 110.587 231.704 110.866C232.217 111.145 232.789 111.284 233.42 111.284C234.373 111.284 235.099 111.042 235.598 110.558C236.097 110.059 236.412 109.429 236.544 108.666L238.744 109.172C238.568 109.92 238.253 110.609 237.798 111.24C237.358 111.871 236.771 112.377 236.038 112.758C235.305 113.125 234.417 113.308 233.376 113.308ZM246.33 113.308C245.23 113.308 244.269 113.081 243.448 112.626C242.626 112.157 241.981 111.504 241.512 110.668C241.057 109.817 240.83 108.835 240.83 107.72V107.456C240.83 106.327 241.057 105.344 241.512 104.508C241.966 103.657 242.597 103.005 243.404 102.55C244.225 102.081 245.171 101.846 246.242 101.846C247.283 101.846 248.192 102.081 248.97 102.55C249.762 103.005 250.378 103.643 250.818 104.464C251.258 105.285 251.478 106.246 251.478 107.346V108.204H243.14C243.169 109.157 243.484 109.92 244.086 110.492C244.702 111.049 245.464 111.328 246.374 111.328C247.224 111.328 247.862 111.137 248.288 110.756C248.728 110.375 249.065 109.935 249.3 109.436L251.17 110.404C250.964 110.815 250.664 111.247 250.268 111.702C249.886 112.157 249.38 112.538 248.75 112.846C248.119 113.154 247.312 113.308 246.33 113.308ZM243.162 106.466H249.168C249.109 105.645 248.816 105.007 248.288 104.552C247.76 104.083 247.07 103.848 246.22 103.848C245.369 103.848 244.672 104.083 244.13 104.552C243.602 105.007 243.279 105.645 243.162 106.466ZM259.747 113V97.6H262.123V113H259.747ZM265.399 113V102.154H267.621V103.782H267.973C268.178 103.342 268.545 102.931 269.073 102.55C269.601 102.169 270.385 101.978 271.427 101.978C272.248 101.978 272.974 102.161 273.605 102.528C274.25 102.895 274.756 103.415 275.123 104.09C275.489 104.75 275.673 105.549 275.673 106.488V113H273.407V106.664C273.407 105.725 273.172 105.036 272.703 104.596C272.233 104.141 271.588 103.914 270.767 103.914C269.828 103.914 269.073 104.222 268.501 104.838C267.943 105.454 267.665 106.349 267.665 107.522V113H265.399ZM282.703 113C282.043 113 281.515 112.802 281.119 112.406C280.738 112.01 280.547 111.482 280.547 110.822V104.068H277.555V102.154H280.547V98.568H282.813V102.154H286.047V104.068H282.813V110.426C282.813 110.866 283.018 111.086 283.429 111.086H285.695V113H282.703ZM293.294 113.308C292.194 113.308 291.234 113.081 290.412 112.626C289.591 112.157 288.946 111.504 288.476 110.668C288.022 109.817 287.794 108.835 287.794 107.72V107.456C287.794 106.327 288.022 105.344 288.476 104.508C288.931 103.657 289.562 103.005 290.368 102.55C291.19 102.081 292.136 101.846 293.206 101.846C294.248 101.846 295.157 102.081 295.934 102.55C296.726 103.005 297.342 103.643 297.782 104.464C298.222 105.285 298.442 106.246 298.442 107.346V108.204H290.104C290.134 109.157 290.449 109.92 291.05 110.492C291.666 111.049 292.429 111.328 293.338 111.328C294.189 111.328 294.827 111.137 295.252 110.756C295.692 110.375 296.03 109.935 296.264 109.436L298.134 110.404C297.929 110.815 297.628 111.247 297.232 111.702C296.851 112.157 296.345 112.538 295.714 112.846C295.084 113.154 294.277 113.308 293.294 113.308ZM290.126 106.466H296.132C296.074 105.645 295.78 105.007 295.252 104.552C294.724 104.083 294.035 103.848 293.184 103.848C292.334 103.848 291.637 104.083 291.094 104.552C290.566 105.007 290.244 105.645 290.126 106.466ZM301.17 113V97.6H303.436V113H301.17ZM306.799 113V97.6H309.065V113H306.799ZM312.428 113V102.154H314.694V113H312.428ZM313.572 100.68C313.132 100.68 312.758 100.541 312.45 100.262C312.157 99.9687 312.01 99.5947 312.01 99.14C312.01 98.6853 312.157 98.3187 312.45 98.04C312.758 97.7467 313.132 97.6 313.572 97.6C314.027 97.6 314.401 97.7467 314.694 98.04C314.987 98.3187 315.134 98.6853 315.134 99.14C315.134 99.5947 314.987 99.9687 314.694 100.262C314.401 100.541 314.027 100.68 313.572 100.68ZM317.529 107.632V107.302C317.529 106.158 317.756 105.183 318.211 104.376C318.68 103.569 319.296 102.946 320.059 102.506C320.821 102.066 321.657 101.846 322.567 101.846C323.623 101.846 324.429 102.044 324.987 102.44C325.559 102.836 325.977 103.261 326.241 103.716H326.593V102.154H328.793V115.222C328.793 115.882 328.595 116.41 328.199 116.806C327.817 117.202 327.289 117.4 326.615 117.4H319.311V115.42H325.911C326.336 115.42 326.549 115.2 326.549 114.76V111.306H326.197C326.035 111.57 325.808 111.841 325.515 112.12C325.221 112.399 324.833 112.626 324.349 112.802C323.879 112.978 323.285 113.066 322.567 113.066C321.657 113.066 320.814 112.853 320.037 112.428C319.274 111.988 318.665 111.365 318.211 110.558C317.756 109.737 317.529 108.761 317.529 107.632ZM323.183 111.086C324.165 111.086 324.972 110.778 325.603 110.162C326.248 109.531 326.571 108.666 326.571 107.566V107.368C326.571 106.239 326.255 105.373 325.625 104.772C324.994 104.156 324.18 103.848 323.183 103.848C322.215 103.848 321.408 104.156 320.763 104.772C320.132 105.373 319.817 106.239 319.817 107.368V107.566C319.817 108.666 320.132 109.531 320.763 110.162C321.408 110.778 322.215 111.086 323.183 111.086ZM337.101 113.308C336.001 113.308 335.04 113.081 334.219 112.626C333.398 112.157 332.752 111.504 332.283 110.668C331.828 109.817 331.601 108.835 331.601 107.72V107.456C331.601 106.327 331.828 105.344 332.283 104.508C332.738 103.657 333.368 103.005 334.175 102.55C334.996 102.081 335.942 101.846 337.013 101.846C338.054 101.846 338.964 102.081 339.741 102.55C340.533 103.005 341.149 103.643 341.589 104.464C342.029 105.285 342.249 106.246 342.249 107.346V108.204H333.911C333.94 109.157 334.256 109.92 334.857 110.492C335.473 111.049 336.236 111.328 337.145 111.328C337.996 111.328 338.634 111.137 339.059 110.756C339.499 110.375 339.836 109.935 340.071 109.436L341.941 110.404C341.736 110.815 341.435 111.247 341.039 111.702C340.658 112.157 340.152 112.538 339.521 112.846C338.89 113.154 338.084 113.308 337.101 113.308ZM333.933 106.466H339.939C339.88 105.645 339.587 105.007 339.059 104.552C338.531 104.083 337.842 103.848 336.991 103.848C336.14 103.848 335.444 104.083 334.901 104.552C334.373 105.007 334.05 105.645 333.933 106.466ZM344.977 113V102.154H347.199V103.782H347.551C347.756 103.342 348.123 102.931 348.651 102.55C349.179 102.169 349.963 101.978 351.005 101.978C351.826 101.978 352.552 102.161 353.183 102.528C353.828 102.895 354.334 103.415 354.701 104.09C355.067 104.75 355.251 105.549 355.251 106.488V113H352.985V106.664C352.985 105.725 352.75 105.036 352.281 104.596C351.811 104.141 351.166 103.914 350.345 103.914C349.406 103.914 348.651 104.222 348.079 104.838C347.521 105.454 347.243 106.349 347.243 107.522V113H344.977ZM363.55 113.308C362.509 113.308 361.563 113.088 360.712 112.648C359.876 112.208 359.209 111.57 358.71 110.734C358.226 109.898 357.984 108.893 357.984 107.72V107.434C357.984 106.261 358.226 105.263 358.71 104.442C359.209 103.606 359.876 102.968 360.712 102.528C361.563 102.073 362.509 101.846 363.55 101.846C364.591 101.846 365.479 102.037 366.212 102.418C366.945 102.799 367.532 103.305 367.972 103.936C368.427 104.567 368.72 105.263 368.852 106.026L366.652 106.488C366.579 106.004 366.425 105.564 366.19 105.168C365.955 104.772 365.625 104.457 365.2 104.222C364.775 103.987 364.239 103.87 363.594 103.87C362.963 103.87 362.391 104.017 361.878 104.31C361.379 104.589 360.983 104.999 360.69 105.542C360.397 106.07 360.25 106.715 360.25 107.478V107.676C360.25 108.439 360.397 109.091 360.69 109.634C360.983 110.177 361.379 110.587 361.878 110.866C362.391 111.145 362.963 111.284 363.594 111.284C364.547 111.284 365.273 111.042 365.772 110.558C366.271 110.059 366.586 109.429 366.718 108.666L368.918 109.172C368.742 109.92 368.427 110.609 367.972 111.24C367.532 111.871 366.945 112.377 366.212 112.758C365.479 113.125 364.591 113.308 363.55 113.308ZM376.503 113.308C375.403 113.308 374.443 113.081 373.621 112.626C372.8 112.157 372.155 111.504 371.685 110.668C371.231 109.817 371.003 108.835 371.003 107.72V107.456C371.003 106.327 371.231 105.344 371.685 104.508C372.14 103.657 372.771 103.005 373.577 102.55C374.399 102.081 375.345 101.846 376.415 101.846C377.457 101.846 378.366 102.081 379.143 102.55C379.935 103.005 380.551 103.643 380.991 104.464C381.431 105.285 381.651 106.246 381.651 107.346V108.204H373.313C373.343 109.157 373.658 109.92 374.259 110.492C374.875 111.049 375.638 111.328 376.547 111.328C377.398 111.328 378.036 111.137 378.461 110.756C378.901 110.375 379.239 109.935 379.473 109.436L381.343 110.404C381.138 110.815 380.837 111.247 380.441 111.702C380.06 112.157 379.554 112.538 378.923 112.846C378.293 113.154 377.486 113.308 376.503 113.308ZM373.335 106.466H379.341C379.283 105.645 378.989 105.007 378.461 104.552C377.933 104.083 377.244 103.848 376.393 103.848C375.543 103.848 374.846 104.083 374.303 104.552C373.775 105.007 373.453 105.645 373.335 106.466Z" fill="#AAAAAA"/>
<defs>
<linearGradient id="paint0_linear_239_197" x1="0" y1="80" x2="0" y2="140" gradientUnits="userSpaceOnUse">
<stop stop-color="#FF3B30"/>
<stop offset="1" stop-color="#B52A24"/>
</linearGradient>
<linearGradient id="paint1_linear_239_197" x1="64" y1="20" x2="64" y2="90" gradientUnits="userSpaceOnUse">
<stop stop-color="#FF3B30"/>
<stop offset="1" stop-color="#B52A24"/>
</linearGradient>
<linearGradient id="paint2_linear_239_197" x1="32" y1="0" x2="32" y2="140" gradientUnits="userSpaceOnUse">
<stop stop-color="#FF3B30"/>
<stop offset="1" stop-color="#B52A24"/>
</linearGradient>
</defs>
</svg>
